<svg id="Warstwa_1" data-name="Warstwa 1" xmlns="http://www.w3.org/2000/svg" viewBox="0 0 180 150"><defs><style>.cls-1,.cls-3,.cls-4,.cls-6{fill:none;}.cls-1,.cls-2,.cls-3,.cls-4,.cls-6{stroke:#f6f6f6;stroke-miterlimit:10;}.cls-1{stroke-width:3px;}.cls-2,.cls-5{fill:#f6f6f6;}.cls-2{stroke-width:1.5px;}.cls-3{stroke-width:2px;}.cls-4{stroke-width:2.2px;}.cls-6{stroke-width:4.5px;}</style></defs><title>jpgObszar roboczy 2</title><circle class="cls-1" cx="89.45" cy="71.88" r="34.27"/><path class="cls-2" d="M73.52,56.89a1.5,1.5,0,0,0-1.27-.08,7.36,7.36,0,0,0-1.82.89,22.67,22.67,0,0,0-2.16,1.63c-.77.65-1.55,1.37-2.33,2.16S64.4,63.1,63.66,64s-1.43,1.71-2.06,2.56A28.05,28.05,0,0,0,60,68.94,12.52,12.52,0,0,0,59,71c-.1.29-.25.43-.46.44a.7.7,0,0,1-.56-.24,1.1,1.1,0,0,1-.29-.69,1.44,1.44,0,0,1,.33-1c.07-.09.27-.36.59-.81l1.24-1.68c.51-.68,1.09-1.43,1.76-2.26s1.38-1.68,2.13-2.54,1.55-1.7,2.38-2.52a29.18,29.18,0,0,1,2.46-2.23A14.71,14.71,0,0,1,71,55.91a5.88,5.88,0,0,1,2.25-.72,1.59,1.59,0,0,1,1.09.28,2.46,2.46,0,0,1,.71.82,4.18,4.18,0,0,1,.38,1,4,4,0,0,1,.11,1,30.53,30.53,0,0,1-.38,3.61c-.2,1.23-.47,2.47-.8,3.71.76-.84,1.52-1.62,2.27-2.34a20.09,20.09,0,0,1,2.25-1.86A12.06,12.06,0,0,1,81,60.15a6.38,6.38,0,0,1,2-.54,2.88,2.88,0,0,1,1.78.38,2.7,2.7,0,0,1,1,1.28,5.64,5.64,0,0,1,.35,2A14.27,14.27,0,0,1,86,65.79c.82-.87,1.63-1.68,2.42-2.43S90,62,90.63,61.42a14.28,14.28,0,0,1,1.86-1.28,3,3,0,0,1,1.34-.46,2.38,2.38,0,0,1,1,.21,1.94,1.94,0,0,1,.82.75,3.31,3.31,0,0,1,.44,1.45,8,8,0,0,1-.17,2.33A15.57,15.57,0,0,1,95,67.21c-.41,1-.88,2-1.4,3s-1.07,2-1.63,2.92-1.08,1.8-1.56,2.56-.88,1.41-1.21,1.92a5.31,5.31,0,0,0-.58,1,.61.61,0,0,1-.46.44,1.21,1.21,0,0,1-.68,0,.8.8,0,0,1-.5-.38.59.59,0,0,1,.07-.66,2.67,2.67,0,0,1,.28-.32l.36-.31c.13-.1.25-.21.37-.32a1.48,1.48,0,0,0,.29-.38c.63-1,1.29-2.08,2-3.25s1.33-2.33,2-3.48,1.14-2.27,1.61-3.34a16.28,16.28,0,0,0,1-2.83,3.79,3.79,0,0,0,0-2,1.11,1.11,0,0,0-1.2-.74,2.85,2.85,0,0,0-1.43.58,15.66,15.66,0,0,0-2,1.55c-.74.65-1.52,1.41-2.35,2.28s-1.66,1.79-2.5,2.76c-.27,1-.6,2-1,3s-.79,2-1.24,3-.9,1.93-1.38,2.83-.94,1.71-1.4,2.43a18.2,18.2,0,0,1-1.33,1.86,4.93,4.93,0,0,1-1.14,1,.9.9,0,0,1-.6.07,1.2,1.2,0,0,1-.65-.39,2.23,2.23,0,0,1-.41-.89,3,3,0,0,1,.09-1.42,13.82,13.82,0,0,1,1.13-2.75,34.19,34.19,0,0,1,1.93-3.22C80.21,72.8,81,71.65,82,70.49s1.85-2.28,2.8-3.35a15.39,15.39,0,0,0,.54-2.41,6.16,6.16,0,0,0,0-2,2.48,2.48,0,0,0-.64-1.36,2,2,0,0,0-1.43-.56,4.6,4.6,0,0,0-2.17.51A12.89,12.89,0,0,0,78.65,63a26.41,26.41,0,0,0-2.55,2.39c-.86.91-1.72,1.89-2.56,2.94-.44,1.41-.93,2.78-1.46,4.11S71,75,70.48,76.18s-1.07,2.29-1.58,3.31-1,1.9-1.39,2.65-.76,1.34-1,1.79a4.88,4.88,0,0,1-.53.77,1.35,1.35,0,0,1-1.06.46,1.08,1.08,0,0,1-.81-.5,2.45,2.45,0,0,1-.35-1.22,3.86,3.86,0,0,1,.33-1.68c.42-1,.93-2.09,1.54-3.27s1.29-2.38,2-3.62S69.17,72.4,70,71.16s1.74-2.44,2.65-3.6c.44-1.3.82-2.55,1.12-3.76a25.82,25.82,0,0,0,.64-3.26,7.91,7.91,0,0,0,0-2.41A1.55,1.55,0,0,0,73.52,56.89ZM65.36,83.53a1.63,1.63,0,0,0,.51-.57c.22-.34.5-.79.81-1.37s.66-1.25,1-2,.77-1.6,1.18-2.5.82-1.86,1.24-2.86.82-2,1.23-3c-.76,1.06-1.47,2.12-2.15,3.17s-1.28,2.05-1.82,3S66.39,79.2,66,80a20.57,20.57,0,0,0-.88,2,3.32,3.32,0,0,0-.25,1.25C64.89,83.58,65.05,83.65,65.36,83.53Zm12.28-3.34a1.5,1.5,0,0,0,0,.3,1,1,0,0,0,.08.3.3.3,0,0,0,.15.19.2.2,0,0,0,.22,0,4.61,4.61,0,0,0,.66-1c.38-.62.84-1.41,1.38-2.38s1.1-2.08,1.71-3.31,1.18-2.47,1.7-3.75c-.76,1-1.48,1.89-2.16,2.83s-1.28,1.84-1.81,2.69a24.42,24.42,0,0,0-1.31,2.32A6.9,6.9,0,0,0,77.64,80.19Z"/><path class="cls-2" d="M115.38,52.45a1.6,1.6,0,0,1,.83-.16.8.8,0,0,1,.52.25.92.92,0,0,1,.22.5,1.75,1.75,0,0,1,0,.6,1.46,1.46,0,0,1-.28.52.83.83,0,0,1-.47.31,3.76,3.76,0,0,0-1.27.85,27.63,27.63,0,0,0-2,2c-.74.8-1.56,1.74-2.45,2.8s-1.8,2.21-2.75,3.43-1.9,2.49-2.86,3.82S103,70,102.07,71.27a7.4,7.4,0,0,0,.1,2.57,19.78,19.78,0,0,0,.91,3.22,37.22,37.22,0,0,0,1.54,3.51,33.6,33.6,0,0,0,2,3.42,27.31,27.31,0,0,0,2.25,3,12.55,12.55,0,0,0,2.32,2.1,4.82,4.82,0,0,0,2.22.87,2.39,2.39,0,0,0,1.92-.7c.13-.13.26-.11.4,0a1.05,1.05,0,0,1,.23.64,1.59,1.59,0,0,1-.19.85,1.4,1.4,0,0,1-.84.7,3,3,0,0,1-2,0,7.54,7.54,0,0,1-2.28-1.23,17,17,0,0,1-2.37-2.2A29,29,0,0,1,106,85.16a35.73,35.73,0,0,1-2-3.27,32.85,32.85,0,0,1-1.59-3.37,21.12,21.12,0,0,1-1-3.19,9.31,9.31,0,0,1-.24-2.74c-.86,1.28-1.65,2.5-2.37,3.68s-1.35,2.25-1.87,3.24a19.58,19.58,0,0,0-1.2,2.62,4.26,4.26,0,0,0-.36,1.74,1.3,1.3,0,0,1-.1-.36,4.64,4.64,0,0,0-.09.46,3.1,3.1,0,0,0-.06.39,1.35,1.35,0,0,1-.24.6.47.47,0,0,1-.36.23c-.13,0-.24-.1-.33-.32a2.79,2.79,0,0,1-.07-1.09,11.81,11.81,0,0,1,.39-1.71c.24-.91.56-2,1-3.38s.85-2.83,1.36-4.48,1-3.32,1.57-5,1.07-3.38,1.6-5,1-3.11,1.44-4.42.81-2.41,1.13-3.28a15.28,15.28,0,0,1,.62-1.58c.23-.38.46-.59.7-.61a.6.6,0,0,1,.59.27,1.61,1.61,0,0,1,.3.85,2.57,2.57,0,0,1-.19,1.16s-.06.1-.14.21l-.3.4c-.11.16-.22.34-.34.54a4.24,4.24,0,0,0-.28.62c-.23.6-.5,1.33-.8,2.2s-.65,1.83-1,2.88l-1.17,3.33c-.41,1.18-.81,2.37-1.22,3.57s-.8,2.41-1.2,3.6-.76,2.33-1.1,3.42c.62-1,1.33-2.09,2.15-3.32s1.69-2.51,2.62-3.83,1.88-2.68,2.86-4.05,2-2.71,2.9-4,1.87-2.5,2.74-3.64,1.67-2.15,2.37-3,1.28-1.58,1.76-2.11A4.11,4.11,0,0,1,115.38,52.45Z"/><path class="cls-3" d="M128.84,71.88a39.39,39.39,0,0,1-39.39,39.4"/><path class="cls-3" d="M55.18,52.44A39.38,39.38,0,0,1,89.45,32.49"/><line class="cls-1" x1="72.46" y1="24.58" x2="106.44" y2="24.58"/><rect class="cls-4" x="133.57" y="11.01" width="21.68" height="9.2"/><line class="cls-1" x1="75.9" y1="11.01" x2="102.99" y2="11.01"/><line class="cls-1" x1="101.89" y1="10.78" x2="110.98" y2="22.54"/><line class="cls-1" x1="77.01" y1="10.78" x2="67.91" y2="22.54"/><path class="cls-5" d="M9,122.47h5.78v1.15H10.18v3.68h4.63v1.15H10.18v5.76H9Z"/><path class="cls-5" d="M22.3,122.17A5.93,5.93,0,0,1,26.69,124a6.33,6.33,0,0,1,0,8.76,5.77,5.77,0,0,1-4.29,1.79,5.84,5.84,0,0,1-4.33-1.78,6,6,0,0,1-1.77-4.33,6.31,6.31,0,0,1,.81-3.14,5.93,5.93,0,0,1,5.19-3.08Zm.05,1.14a4.69,4.69,0,0,0-2.42.68,4.77,4.77,0,0,0-1.79,1.83,5.16,5.16,0,0,0-.65,2.56,4.84,4.84,0,0,0,1.43,3.54,4.65,4.65,0,0,0,3.43,1.44,4.88,4.88,0,0,0,2.49-.66,4.76,4.76,0,0,0,1.78-1.81,5.15,5.15,0,0,0,.64-2.56,5,5,0,0,0-.64-2.53,5,5,0,0,0-4.27-2.49Z"/><path class="cls-5" d="M29.62,123.62v-1.15h6.32v1.15H33.37v10.59H32.19V123.62Z"/><path class="cls-5" d="M43.09,122.17A5.9,5.9,0,0,1,47.47,124a6,6,0,0,1,1.77,4.38,6,6,0,0,1-1.76,4.38,5.79,5.79,0,0,1-4.3,1.79,5.85,5.85,0,0,1-4.33-1.78,6,6,0,0,1-1.76-4.33,6.4,6.4,0,0,1,.8-3.14A6,6,0,0,1,40.08,123,5.8,5.8,0,0,1,43.09,122.17Zm0,1.14a4.75,4.75,0,0,0-2.43.68,4.84,4.84,0,0,0-1.79,1.83,5.26,5.26,0,0,0-.64,2.56,4.8,4.8,0,0,0,1.43,3.54,4.63,4.63,0,0,0,3.43,1.44,4.87,4.87,0,0,0,2.48-.66,4.72,4.72,0,0,0,1.79-1.81,5.26,5.26,0,0,0,.64-2.56,5.11,5.11,0,0,0-.64-2.53,5,5,0,0,0-4.27-2.49Z"/><path class="cls-5" d="M62.67,124.44l-.89.86a7.19,7.19,0,0,0-2.11-1.47,5.67,5.67,0,0,0-2.24-.49,5.29,5.29,0,0,0-2.59.67,5,5,0,0,0-1.9,1.84,5,5,0,0,0-.67,2.46,4.9,4.9,0,0,0,.7,2.52,5,5,0,0,0,1.93,1.87,5.41,5.41,0,0,0,2.69.69,4.55,4.55,0,0,0,3-1,4.08,4.08,0,0,0,1.46-2.66H58.38v-1.13h5a6,6,0,0,1-1.58,4.32,5.62,5.62,0,0,1-4.21,1.6,6.28,6.28,0,0,1-5.06-2.21,6,6,0,0,1-1.44-4,6.13,6.13,0,0,1,.83-3.1A5.93,5.93,0,0,1,54.14,123a6.5,6.5,0,0,1,3.25-.81,7.07,7.07,0,0,1,2.76.54A8.13,8.13,0,0,1,62.67,124.44Z"/><path class="cls-5" d="M65.61,122.47h2.3a13.38,13.38,0,0,1,2.6.16,3,3,0,0,1,1.67,1,3,3,0,0,1,.64,1.94,3.25,3.25,0,0,1-.44,1.69,2.85,2.85,0,0,1-1.27,1.1,5.74,5.74,0,0,1-2.27.38L73,134.21H71.56l-4.15-5.45h-.65v5.45H65.61Zm1.15,1.15v4h2a4.86,4.86,0,0,0,1.71-.22,1.79,1.79,0,0,0,.86-.72,2,2,0,0,0,.31-1.09,2,2,0,0,0-.31-1.08,1.79,1.79,0,0,0-.83-.69,4.89,4.89,0,0,0-1.69-.2Z"/><path class="cls-5" d="M80,122.47l5.38,11.74H84.13l-1.81-3.87h-5l-1.79,3.87H74.27l5.45-11.74ZM79.85,125l-2,4.25h3.94Z"/><path class="cls-5" d="M87.16,122.47h5.78v1.15H88.32v3.68h4.62v1.15H88.32v5.76H87.16Z"/><path class="cls-5" d="M94.78,122.47h1.15v11.74H94.78Z"/><path class="cls-5" d="M103.29,122.47l5.37,11.74h-1.24l-1.81-3.87h-5l-1.8,3.87H97.56L103,122.47Zm-.15,2.49-2,4.25h3.94Z"/><path class="cls-5" d="M113.7,132l1-.6c.69,1.3,1.49,1.94,2.39,1.94a2.29,2.29,0,0,0,1.09-.27,2,2,0,0,0,.78-.74,1.93,1.93,0,0,0,.27-1,2,2,0,0,0-.4-1.16,9.49,9.49,0,0,0-2-1.88,10.48,10.48,0,0,1-1.8-1.61,3,3,0,0,1-.61-1.8,2.74,2.74,0,0,1,.36-1.39,2.65,2.65,0,0,1,1-1,2.88,2.88,0,0,1,1.42-.36,3,3,0,0,1,1.52.41,5.21,5.21,0,0,1,1.5,1.51l-.94.73a4.78,4.78,0,0,0-1.1-1.16,2,2,0,0,0-1-.28,1.58,1.58,0,0,0-1.14.43,1.44,1.44,0,0,0-.45,1.07,1.76,1.76,0,0,0,.16.74,2.73,2.73,0,0,0,.57.78c.15.15.65.54,1.49,1.18a8.28,8.28,0,0,1,2,2,3.18,3.18,0,0,1,.56,1.76,3,3,0,0,1-1,2.22,3.18,3.18,0,0,1-2.32.94,3.34,3.34,0,0,1-1.9-.57A5.13,5.13,0,0,1,113.7,132Zm4.13-12.94h1.68l-2.31,2.46h-1.08Z"/><path class="cls-5" d="M122.89,122.47H124v10.61h4.44v1.13h-5.59Z"/><path class="cls-5" d="M130.34,122.47h1.15v7.08a15.07,15.07,0,0,0,0,1.58,2.66,2.66,0,0,0,.4,1.16,2.39,2.39,0,0,0,1,.78,3,3,0,0,0,1.31.32,2.64,2.64,0,0,0,1.1-.25,2.48,2.48,0,0,0,.88-.69,2.84,2.84,0,0,0,.52-1.06,9.88,9.88,0,0,0,.11-1.84v-7.08H138v7.08a8.52,8.52,0,0,1-.31,2.55,3.48,3.48,0,0,1-3.39,2.4,4.15,4.15,0,0,1-2.39-.67,3.32,3.32,0,0,1-1.34-1.8,9.78,9.78,0,0,1-.21-2.48Z"/><path class="cls-5" d="M140.84,122.47h2.28a5.38,5.38,0,0,1,2.11.33,2.64,2.64,0,0,1,1.16,1,2.89,2.89,0,0,1,.43,1.53,2.74,2.74,0,0,1-.38,1.42,2.79,2.79,0,0,1-1.1,1,4.18,4.18,0,0,1,1.39.73,2.9,2.9,0,0,1,.75,1,3.11,3.11,0,0,1,.27,1.29,3.18,3.18,0,0,1-1,2.39,3.75,3.75,0,0,1-2.72,1h-3.17Zm1.13,1.15v3.76h.66a5.13,5.13,0,0,0,1.77-.23,1.89,1.89,0,0,0,.9-.72,1.92,1.92,0,0,0,.33-1.09,1.57,1.57,0,0,0-.56-1.27,2.79,2.79,0,0,0-1.76-.45Zm0,4.94v4.5h1.43a4.94,4.94,0,0,0,1.85-.25,2.1,2.1,0,0,0,.95-.79,2,2,0,0,0,.36-1.16,2,2,0,0,0-.5-1.36,2.57,2.57,0,0,0-1.39-.8,9.58,9.58,0,0,0-2-.14Z"/><path class="cls-5" d="M150,134.21V122.47h.25l7.67,9v-9h1.14v11.74h-.26l-7.61-8.89v8.89Z"/><path class="cls-5" d="M166.61,122.47,172,134.21h-1.24l-1.82-3.87h-5l-1.8,3.87h-1.29l5.45-11.74Zm-.14,2.49-2,4.25h3.94Z"/><polyline class="cls-6" points="47.53 24.58 7.63 24.58 7.63 45.33"/><polyline class="cls-6" points="132.18 24.58 172.09 24.58 172.09 45.33"/><polyline class="cls-6" points="132.47 116.53 172.37 116.53 172.37 95.78"/><polyline class="cls-6" points="47.82 116.53 7.91 116.53 7.91 95.78"/></svg>